
		<svg xmlns="http://www.w3.org/2000/svg" xmlns:xlink="http://www.w3.org/1999/xlink" version="1.1" width="3088.8888888888887" height="426.66666666666663">
			
			<g transform="scale(4.444444444444445) translate(10, 10)">
				<defs id="SvgjsDefs3605"/><g id="SvgjsG3606" featureKey="root" fill="#fff" transform="matrix(1,0,0,1,0,0)"/><g id="SvgjsG3607" featureKey="symbol1" fill="#fff" transform="matrix(0.7777777777777778,0,0,0.7777777777777778,-3.8888888888888857,-9.877778371175133)"><path xmlns="http://www.w3.org/2000/svg" d="M5,20.1l7.4-7.4l26.1,26.1l7.5,7.4l-7.5,7.4L12.4,79.7L5,72.3l26.1-26.1L5,20.1z M95,87.3V75.7H48.8v11.6H95z"/></g><g id="SvgjsG3608" featureKey="text1" fill="#fff" transform="matrix(2.0922527616123876,0,0,2.0922527616123876,120.65239777628068,-1.9225216301407109)"><path d="M7.24 13.98 c2.76 0 4.4 2.29 4.4 5.14 s-1.63 5.14 -4.4 5.14 c-1.21 0 -2.13 -0.45 -2.82 -1.12 l0 4.36 c0 0.18 -0.12 0.3 -0.3 0.3 l-2.22 0 c-0.18 0 -0.3 -0.12 -0.3 -0.3 l0 -13 c0 -0.18 0.12 -0.3 0.3 -0.3 l2.22 0 c0.18 0 0.3 0.12 0.3 0.3 l0 0.87 l0.22 0 c0.54 -0.77 1.29 -1.39 2.6 -1.39 z M6.62 21.7 c1.57 0 2.31 -1.04 2.31 -2.6 s-0.74 -2.56 -2.31 -2.56 c-1.43 0 -2.19 1 -2.19 2.56 s0.76 2.6 2.19 2.6 z M24.64 18.1 c1.87 0.24 4.65 0.45 4.65 3.02 c0 1.9 -1.61 3.14 -4.55 3.14 c-2.77 0 -4.52 -0.81 -4.76 -3.3 c-0.02 -0.2 0.12 -0.3 0.3 -0.3 l2.09 0 c0.18 0 0.26 0.08 0.28 0.2 c0.14 0.78 0.8 1.11 2.02 1.11 c1.17 0 1.87 -0.28 1.87 -0.94 c0 -0.63 -0.85 -0.83 -1.9 -0.96 c-1.86 -0.23 -4.48 -0.41 -4.48 -2.94 c0 -1.91 1.55 -3.15 4.34 -3.15 c2.58 0 4.35 0.78 4.6 3.27 c0.02 0.2 -0.13 0.3 -0.31 0.3 l-2.09 0 c-0.18 0 -0.25 -0.08 -0.27 -0.19 c-0.14 -0.78 -0.83 -1.09 -1.87 -1.09 c-0.99 0 -1.64 0.26 -1.64 0.92 c0 0.59 0.68 0.78 1.72 0.91 z M47.63 18.96 c0 0.81 -0.1 1.22 -0.71 1.22 l-6.53 0 c0.25 1.17 1.36 1.81 2.9 1.81 c0.89 0 1.51 -0.17 2.19 -0.62 c0.19 -0.12 0.31 -0.11 0.44 0.02 l0.93 0.93 c0.14 0.14 0.14 0.28 -0.02 0.44 c-0.94 0.94 -2.2 1.5 -3.81 1.5 c-3.22 0 -5.35 -2.26 -5.35 -5.14 s2.13 -5.14 5.12 -5.14 c3.01 0 4.84 2.26 4.84 4.98 z M42.81 16.36 c-1.21 0 -2.13 0.65 -2.37 1.91 l4.69 0 c-0.2 -1.26 -1.1 -1.91 -2.32 -1.91 z M65.65 14.2 c0.18 0 0.3 0.12 0.3 0.3 l0 9.2 c0 0.18 -0.12 0.3 -0.3 0.3 l-2.14 0 c-0.18 0 -0.28 -0.12 -0.3 -0.3 l-0.08 -1.27 l-0.2 0 c-0.67 0.94 -1.56 1.79 -3.04 1.79 c-1.98 0 -3.53 -1.57 -3.53 -4.19 l0 -5.53 c0 -0.18 0.12 -0.3 0.3 -0.3 l2.22 0 c0.18 0 0.3 0.12 0.3 0.3 l0 4.99 c0 1.61 0.88 2.11 1.94 2.11 c1.39 0 2.01 -1.39 2.01 -1.85 l0 -5.25 c0 -0.18 0.12 -0.3 0.3 -0.3 l2.22 0 z M84.5 10 c0.18 0 0.3 0.12 0.3 0.3 l0 13.4 c0 0.18 -0.12 0.3 -0.3 0.3 l-2.01 0 c-0.18 0 -0.28 -0.12 -0.3 -0.3 l-0.06 -0.68 c-0.7 0.73 -1.67 1.24 -2.96 1.24 c-2.78 0 -4.39 -2.29 -4.39 -5.14 s1.62 -5.14 4.39 -5.14 c1.36 0 2.15 0.62 2.58 1.39 l0.23 0 l0 -5.07 c0 -0.18 0.12 -0.3 0.3 -0.3 l2.22 0 z M79.78 21.69 c1.47 0 2.3 -1.03 2.3 -2.59 s-0.83 -2.55 -2.3 -2.55 c-1.45 0 -2.29 0.99 -2.29 2.55 s0.84 2.59 2.29 2.59 z M98.78 24.26 c-2.85 0 -5.15 -2.26 -5.15 -5.14 c0 -2.87 2.3 -5.14 5.15 -5.14 c2.84 0 5.14 2.27 5.14 5.14 c0 2.88 -2.3 5.14 -5.14 5.14 z M98.78 21.65 c1.39 0 2.43 -1.13 2.43 -2.53 c0 -1.39 -1.04 -2.53 -2.43 -2.53 c-1.4 0 -2.44 1.14 -2.44 2.53 c0 1.4 1.04 2.53 2.44 2.53 z M117.7 21.65 c0.84 0 1.55 -0.34 2.01 -0.91 c0.12 -0.14 0.24 -0.18 0.4 -0.08 l1.65 0.93 c0.16 0.1 0.22 0.24 0.1 0.4 c-0.84 1.32 -2.38 2.27 -4.23 2.27 c-3 0 -5.23 -2.24 -5.23 -5.14 s2.23 -5.14 5.23 -5.14 c1.85 0 3.39 0.95 4.23 2.27 c0.12 0.16 0.06 0.3 -0.1 0.4 l-1.65 0.93 c-0.16 0.1 -0.28 0.06 -0.4 -0.08 c-0.46 -0.57 -1.17 -0.91 -2.01 -0.91 c-1.46 0 -2.59 1.04 -2.59 2.53 s1.13 2.53 2.59 2.53 z M135.46 24.26 c-2.85 0 -5.15 -2.26 -5.15 -5.14 c0 -2.87 2.3 -5.14 5.15 -5.14 c2.84 0 5.14 2.27 5.14 5.14 c0 2.88 -2.3 5.14 -5.14 5.14 z M135.46 21.65 c1.39 0 2.43 -1.13 2.43 -2.53 c0 -1.39 -1.04 -2.53 -2.43 -2.53 c-1.4 0 -2.44 1.14 -2.44 2.53 c0 1.4 1.04 2.53 2.44 2.53 z M158.8 10 c0.18 0 0.3 0.12 0.3 0.3 l0 13.4 c0 0.18 -0.12 0.3 -0.3 0.3 l-2.01 0 c-0.18 0 -0.28 -0.12 -0.3 -0.3 l-0.06 -0.68 c-0.7 0.73 -1.67 1.24 -2.96 1.24 c-2.78 0 -4.39 -2.29 -4.39 -5.14 s1.62 -5.14 4.39 -5.14 c1.36 0 2.15 0.62 2.58 1.39 l0.23 0 l0 -5.07 c0 -0.18 0.12 -0.3 0.3 -0.3 l2.22 0 z M154.08 21.69 c1.47 0 2.3 -1.03 2.3 -2.59 s-0.83 -2.55 -2.3 -2.55 c-1.45 0 -2.29 0.99 -2.29 2.55 s0.84 2.59 2.29 2.59 z M177.89000000000001 18.96 c0 0.81 -0.1 1.22 -0.71 1.22 l-6.53 0 c0.25 1.17 1.36 1.81 2.9 1.81 c0.89 0 1.51 -0.17 2.19 -0.62 c0.19 -0.12 0.31 -0.11 0.44 0.02 l0.93 0.93 c0.14 0.14 0.14 0.28 -0.02 0.44 c-0.94 0.94 -2.2 1.5 -3.81 1.5 c-3.22 0 -5.35 -2.26 -5.35 -5.14 s2.13 -5.14 5.12 -5.14 c3.01 0 4.84 2.26 4.84 4.98 z M173.07 16.36 c-1.21 0 -2.13 0.65 -2.37 1.91 l4.69 0 c-0.2 -1.26 -1.1 -1.91 -2.32 -1.91 z  M205.45000000000002 21.65 c0.84 0 1.55 -0.34 2.01 -0.91 c0.12 -0.14 0.24 -0.18 0.4 -0.08 l1.65 0.93 c0.16 0.1 0.22 0.24 0.1 0.4 c-0.84 1.32 -2.38 2.27 -4.23 2.27 c-3 0 -5.23 -2.24 -5.23 -5.14 s2.23 -5.14 5.23 -5.14 c1.85 0 3.39 0.95 4.23 2.27 c0.12 0.16 0.06 0.3 -0.1 0.4 l-1.65 0.93 c-0.16 0.1 -0.28 0.06 -0.4 -0.08 c-0.46 -0.57 -1.17 -0.91 -2.01 -0.91 c-1.46 0 -2.59 1.04 -2.59 2.53 s1.13 2.53 2.59 2.53 z M227.18 21.71 c0.18 0 0.3 0.12 0.3 0.3 l0 1.69 c0 0.18 -0.12 0.3 -0.3 0.3 l-8.82 0 c-0.18 0 -0.3 -0.12 -0.3 -0.3 l0 -1.69 c0 -0.18 0.12 -0.3 0.3 -0.3 l3.21 0 l0 -9.42 l-2.94 0 c-0.18 0 -0.3 -0.12 -0.3 -0.3 l0 -1.69 c0 -0.18 0.12 -0.3 0.3 -0.3 l5.46 0 c0.18 0 0.3 0.12 0.3 0.3 l0 11.41 l2.79 0 z M245.35 14.2 c0.18 0 0.3 0.12 0.3 0.3 l0 9.2 c0 0.18 -0.12 0.3 -0.3 0.3 l-2.14 0 c-0.18 0 -0.28 -0.12 -0.3 -0.3 l-0.08 -1.27 l-0.2 0 c-0.67 0.94 -1.56 1.79 -3.04 1.79 c-1.98 0 -3.53 -1.57 -3.53 -4.19 l0 -5.53 c0 -0.18 0.12 -0.3 0.3 -0.3 l2.22 0 c0.18 0 0.3 0.12 0.3 0.3 l0 4.99 c0 1.61 0.88 2.11 1.94 2.11 c1.39 0 2.01 -1.39 2.01 -1.85 l0 -5.25 c0 -0.18 0.12 -0.3 0.3 -0.3 l2.22 0 z M260.47 13.98 c2.76 0 4.4 2.29 4.4 5.14 s-1.63 5.14 -4.4 5.14 c-1.3 0 -2.27 -0.52 -2.97 -1.27 l-0.06 0.71 c-0.02 0.18 -0.12 0.3 -0.3 0.3 l-2.01 0 c-0.18 0 -0.3 -0.12 -0.3 -0.3 l0 -13.4 c0 -0.18 0.12 -0.3 0.3 -0.3 l2.22 0 c0.18 0 0.3 0.12 0.3 0.3 l0 5.07 l0.22 0 c0.54 -0.77 1.29 -1.39 2.6 -1.39 z M259.85 21.7 c1.57 0 2.31 -1.04 2.31 -2.6 s-0.74 -2.56 -2.31 -2.56 c-1.43 0 -2.19 1 -2.19 2.56 s0.76 2.6 2.19 2.6 z"/></g>
			</g>
		</svg>
	